# xmcd CD database file
#
# Track frame offsets:
#	150
#	22225
#	39887
#	61092
#	82032
#	104510
#	124522
#	144120
#	166852
#	184157
#
# Disc length: 2714 seconds
#
# Revision: 0
# Processed by: cddbd v1.5PL3 Copyright (c) Steve Scherf et al.
# Submitted via: CDex 1.51
#
DISCID=7a0a980a
DTITLE=小川範子 - どうしてこんなに好きなんだろう
DYEAR=1992
DGENRE=Pop
TTITLE0=どうしてこんなに好きなんだろう
TTITLE1=恋より嬉しい雨はない
TTITLE2=かきかけの手記のように
TTITLE3=それでも好き
TTITLE4=雨の休日
TTITLE5=今日の日を胸に忘れない
TTITLE6=これでいいの
TTITLE7=素直にジェラシー
TTITLE8=あたたかなほほえみ
TTITLE9=橋
EXTD=YEAR: 1992
EXTT0=
EXTT1=
EXTT2=
EXTT3=
EXTT4=
EXTT5=
EXTT6=
EXTT7=
EXTT8=
EXTT9=
PLAYORDER=
